<svg xmlns="http://www.w3.org/2000/svg" fill="none" viewBox="0 0 209 169" height="169" width="209">
<path fill="white" d="M34.5403 93.7527L49.3432 167.768H38.241L23.4381 94.986H11.1022V167.768H0V28.373C7.40149 23.4387 14.803 20.9713 23.4381 17.2705C24.6716 16.0369 27.1388 16.0372 29.606 16.0372C38.241 16.0372 45.6425 23.4386 45.6425 32.0736V78.9496C45.6425 85.1175 40.7082 91.2855 34.5403 93.7527ZM33.3067 32.0736C33.3067 29.6065 32.0731 27.139 29.606 27.139C28.7836 27.139 27.9612 27.139 27.1388 27.139C22.2045 29.6062 16.859 32.0738 11.1022 34.5409V83.8842H29.606C32.0731 83.8842 33.3067 81.4167 33.3067 78.9496V32.0736Z" clip-rule="evenodd" fill-rule="evenodd"></path>
<path fill="white" d="M99.9193 24.6716V145.562C99.9193 157.898 90.0507 169 76.4813 169C64.1455 169 54.2769 157.898 54.2769 145.562V24.6716C54.2769 12.3358 64.1455 1.23328 76.4813 1.23328C90.0507 1.23328 99.9193 12.3358 99.9193 24.6716ZM76.4813 13.5691C70.3134 13.5691 65.3791 18.5037 65.3791 24.6716V145.562C65.3791 151.73 70.3134 156.664 76.4813 156.664C82.6492 156.664 88.8171 151.73 88.8171 145.562V24.6716C88.8171 18.5037 82.6492 13.5691 76.4813 13.5691Z" clip-rule="evenodd" fill-rule="evenodd"></path>
<path fill="white" d="M207.239 40.7087L208.473 41.9419V28.3729C194.492 20.149 180.101 13.9811 165.298 9.86914H164.064V167.767H208.473V155.432H175.166V94.9858H208.473V83.884H175.166V25.9055C186.68 30.0175 197.371 34.952 207.239 40.7087Z"></path>
<path fill="white" d="M144.326 3.70059H143.093V145.562C143.093 151.73 138.158 156.664 131.99 156.664C125.822 156.664 120.888 151.73 120.888 145.562V1.23328H119.654C116.365 1.23328 113.075 0.822387 109.786 0H108.552V145.562C108.552 157.898 119.654 169 131.99 169C144.326 169 155.428 157.898 155.428 145.562V6.16791H154.195C150.905 5.34552 147.616 4.52298 144.326 3.70059Z"></path>
</svg>
